solid Prusai3 X3D full stuff V1
facet normal 5.685646910759728e-08 0.9999999999999962 6.718183441744681e-08
outer loop
vertex 293.44215597978206 2779.2660458389482 3.000005482098345
vertex 274.24215884028183 2779.2660467038086 0.8000028107989449
vertex 274.24215848058816 2779.266046534771 3.000002955043282
endloop
endfacet
facet normal 5.685646910759728e-08 0.9999999999999962 6.718183441744681e-08
outer loop
vertex 274.24215884028183 2779.2660467038086 0.8000028107989449
vertex 259.242158945377 2779.2660479177775 8.402670554352731e-07
vertex 259.242158840282 2779.266047906353 0.8000008402670483
endloop
endfacet
facet normal 5.685646910759728e-08 0.9999999999999962 6.718183441744681e-08
outer loop
vertex 259.242158945377 2779.2660479177775 8.402670554352731e-07
vertex 274.24215884028183 2779.2660467038086 0.8000028107989449
vertex 293.44215637388857 2779.2660458817904 5.482098369480326e-06
endloop
endfacet
facet normal 5.685646910759728e-08 0.9999999999999962 6.718183441744681e-08
outer loop
vertex 293.44215637388857 2779.2660458817904 5.482098369480326e-06
vertex 274.24215884028183 2779.2660467038086 0.8000028107989449
vertex 293.44215597978206 2779.2660458389482 3.000005482098345
endloop
endfacet
facet normal 0.9999999999999913 -1.9894570050179194e-08 1.3136883765707507e-07
outer loop
vertex 293.44215512906965 2736.5050009387737 3.0000040565165578
vertex 293.44215637388857 2779.2660458817904 5.482098369480326e-06
vertex 293.44215597978206 2779.2660458389482 3.000005482098345
endloop
endfacet
facet normal 0.9999999999999913 -1.9894570050179194e-08 1.3136883765707507e-07
outer loop
vertex 293.44215637388857 2779.2660458817904 5.482098369480326e-06
vertex 293.44215512906965 2736.5050009387737 3.0000040565165578
vertex 293.44215552317615 2736.5050009816155 4.05651658230699e-06
endloop
endfacet
facet normal -3.171440084120436e-08 -0.9999999999999978 -5.891599044045561e-08
outer loop
vertex 259.24215551724103 2736.5050021841616 6.604107014251958e-07
vertex 274.24215541214596 2736.505000970193 0.8000022001406132
vertex 259.24215541214613 2736.505002172737 0.8000002296087152
endloop
endfacet
facet normal -3.171440084120436e-08 -0.9999999999999978 -5.891599044045561e-08
outer loop
vertex 274.24215541214596 2736.505000970193 0.8000022001406132
vertex 259.24215551724103 2736.5050021841616 6.604107014251958e-07
vertex 293.44215552317615 2736.5050009816155 4.05651658230699e-06
endloop
endfacet
facet normal -3.171440084120436e-08 -0.9999999999999978 -5.891599044045561e-08
outer loop
vertex 274.24215541214596 2736.505000970193 0.8000022001406132
vertex 293.44215552317615 2736.5050009816155 4.05651658230699e-06
vertex 293.44215512906965 2736.5050009387737 3.0000040565165578
endloop
endfacet
facet normal -3.171440084120436e-08 -0.9999999999999978 -5.891599044045561e-08
outer loop
vertex 293.44215512906965 2736.5050009387737 3.0000040565165578
vertex 274.24215512313435 2736.5050009387755 3.0000026309425727
vertex 274.24215541214596 2736.505000970193 0.8000022001406132
endloop
endfacet
facet normal 0.9914448613738589 -0.1305261922196219 1.283809576849508e-07
outer loop
vertex 276.53430862557497 2773.4262309436217 3.0000046224116277
vertex 276.5922351149899 2773.866223363138 4.625224558219009e-06
vertex 276.59223472088337 2773.8662233202963 3.00000462522453
endloop
endfacet
facet normal 0.9659258253602393 -0.2588190485689286 1.2319644347653095e-07
outer loop
vertex 276.5922351149899 2773.866223363138 4.625224558219009e-06
vertex 276.53430862557497 2773.4262309436217 3.0000046224116277
vertex 276.5343090196815 2773.426230986464 4.6224116557525e-06
endloop
endfacet
facet normal 0.9999999999999916 -1.0687614853230055e-13 1.3136883794118143e-07
outer loop
vertex 276.53430901967806 2741.445278048839 4.6224116557525e-06
vertex 276.53430862557497 2773.4262309436217 3.0000046224116277
vertex 276.53430862557155 2741.445278005997 3.0000046224116277
endloop
endfacet
facet normal 0.9999999999999916 -1.0687614853230055e-13 1.3136883794118143e-07
outer loop
vertex 276.53430862557497 2773.4262309436217 3.0000046224116277
vertex 276.53430901967806 2741.445278048839 4.6224116557525e-06
vertex 276.5343090196815 2773.426230986464 4.6224116557525e-06
endloop
endfacet
facet normal 0.9659258269551786 0.2588190426165307 1.30588663078974e-07
outer loop
vertex 276.5922347208804 2741.0052856293228 3.0000046182205455
vertex 276.53430901967806 2741.445278048839 4.6224116557525e-06
vertex 276.53430862557155 2741.445278005997 3.0000046224116277
endloop
endfacet
facet normal 0.991444861373727 0.13052619222061823 1.321089609598645e-07
outer loop
vertex 276.53430901967806 2741.445278048839 4.6224116557525e-06
vertex 276.5922347208804 2741.0052856293228 3.0000046182205455
vertex 276.5922351149869 2741.0052856721645 4.618220573626708e-06
endloop
endfacet
facet normal 0.8660254065332982 0.49999999523882105 1.209090868273423e-07
outer loop
vertex 276.7620654391381 2740.5952780059974 3.0000046129362676
vertex 276.5922351149869 2741.0052856721645 4.618220573626708e-06
vertex 276.5922347208804 2741.0052856293228 3.0000046182205455
endloop
endfacet
facet normal 0.9659258256228666 0.25881904758878677 1.305886629749568e-07
outer loop
vertex 276.5922351149869 2741.0052856721645 4.618220573626708e-06
vertex 276.7620654391381 2740.5952780059974 3.0000046129362676
vertex 276.76206583324466 2740.595278048839 4.612936293424407e-06
endloop
endfacet
facet normal 0.7071067868763631 0.7071067754967244 1.029897562739441e-07
outer loop
vertex 277.03222709755454 2740.24319647798 3.0000046069193926
vertex 276.76206583324466 2740.595278048839 4.612936293424407e-06
vertex 276.7620654391381 2740.5952780059974 3.0000046129362676
endloop
endfacet
facet normal 0.8660254010357431 0.500000004760866 1.2090908624111612e-07
outer loop
vertex 276.76206583324466 2740.595278048839 4.612936293424407e-06
vertex 277.03222709755454 2740.24319647798 3.0000046069193926
vertex 277.03222749166105 2740.243196520822 4.606919415539589e-06
endloop
endfacet
facet normal 0.5000000087013886 0.8660253987606862 7.805184410436323e-08
outer loop
vertex 277.38430862557175 2739.9730348195635 3.000004600579609
vertex 277.03222749166105 2740.243196520822 4.606919415539589e-06
vertex 277.03222709755454 2740.24319647798 3.0000046069193926
endloop
endfacet
facet normal 0.7071067754967247 0.7071067868763627 1.0298975494152314e-07
outer loop
vertex 277.03222749166105 2740.243196520822 4.606919415539589e-06
vertex 277.38430862557175 2739.9730348195635 3.000004600579609
vertex 277.38430901967826 2739.9730348624053 4.600579631752755e-06
endloop
endfacet
facet normal 0.2588190560788775 0.9659258233479613 4.779482774285236e-08
outer loop
vertex 277.79431624889713 2739.8032041013057 3.0000045943493503
vertex 277.38430901967826 2739.9730348624053 4.600579631752755e-06
vertex 277.38430862557175 2739.9730348195635 3.000004600579609
endloop
endfacet
facet normal 0.4999999912989266 0.8660254088080022 7.805184196170444e-08
outer loop
vertex 277.38430901967826 2739.9730348624053 4.600579631752755e-06
vertex 277.79431624889713 2739.8032041013057 3.0000045943493503
vertex 277.79431664300364 2739.8032041441475 4.5943493754641015e-06
endloop
endfacet
facet normal 1.1904981787438489e-08 1.0 1.4280672787916746e-08
outer loop
vertex 278.2343086255714 2739.745278005997 3.0000045886529354
vertex 277.79431664300364 2739.8032041441475 4.5943493754641015e-06
vertex 277.79431624889713 2739.8032041013057 3.0000045943493503
endloop
endfacet
facet normal 0.25881903412668056 0.9659258292300347 4.779482494301771e-08
outer loop
vertex 277.79431664300364 2739.8032041441475 4.5943493754641015e-06
vertex 278.2343086255714 2739.745278005997 3.0000045886529354
vertex 278.2343090196779 2739.745278048839 4.588652961390327e-06
endloop
endfacet
facet normal -0.2588190338635864 0.9659258293005315 -2.020668652218506e-08
outer loop
vertex 278.6743010022457 2739.8032041013057 3.000004583878582
vertex 278.2343090196779 2739.745278048839 4.588652961390327e-06
vertex 278.2343086255714 2739.745278005997 3.0000045886529354
endloop
endfacet
facet normal -1.190482673413355e-08 1.0 1.428066966004987e-08
outer loop
vertex 278.2343090196779 2739.745278048839 4.588652961390327e-06
vertex 278.6743010022457 2739.8032041013057 3.000004583878582
vertex 278.67430139635223 2739.8032041441475 4.583878607267166e-06
endloop
endfacet
facet normal -0.49999999084370544 0.866025409070826 -5.331699363017898e-08
outer loop
vertex 279.08430862557174 2739.973034819563 3.0000045803517064
vertex 278.67430139635223 2739.8032041441475 4.583878607267166e-06
vertex 278.6743010022457 2739.8032041013057 3.000004583878582
endloop
endfacet
facet normal -0.2588190563410841 0.965925823277704 -2.0206689561037835e-08
outer loop
vertex 278.67430139635223 2739.8032041441475 4.583878607267166e-06
vertex 279.08430862557174 2739.973034819563 3.0000045803517064
vertex 279.08430901967824 2739.9730348624053 4.58035173440674e-06
endloop
endfacet
facet normal -0.707106774971399 0.7071067874016913 -8.279383577704221e-08
outer loop
vertex 279.43639015358883 2740.24319647798 3.0000045783125264
vertex 279.08430901967824 2739.9730348624053 4.58035173440674e-06
vertex 279.08430862557174 2739.973034819563 3.0000045803517064
endloop
endfacet
facet normal -0.5000000091559877 0.866025398498225 -5.331699618682608e-08
outer loop
vertex 279.08430901967824 2739.9730348624053 4.58035173440674e-06
vertex 279.43639015358883 2740.24319647798 3.0000045783125264
vertex 279.43639054769534 2740.2431965208216 4.578312554603947e-06
endloop
endfacet
facet normal -0.8660254005807455 0.5000000055489479 -1.0662841481112604e-07
outer loop
vertex 279.7065518120053 2740.595278005997 3.000004577900394
vertex 279.43639054769534 2740.2431965208216 4.578312554603947e-06
vertex 279.43639015358883 2740.24319647798 3.0000045783125264
endloop
endfacet
facet normal -0.7071067874015792 0.7071067749715111 -8.279383758749183e-08
outer loop
vertex 279.43639054769534 2740.2431965208216 4.578312554603947e-06
vertex 279.7065518120053 2740.595278005997 3.000004577900394
vertex 279.70655220611184 2740.5952780488387 4.577900415092539e-06
endloop
endfacet
facet normal -0.965925827217927 0.25881904163594405 -1.2319644381982136e-07
outer loop
vertex 279.87638292436964 2741.0052856721645 4.579142937444214e-06
vertex 279.7065518120053 2740.595278005997 3.000004577900394
vertex 279.87638253026313 2741.0052856293223 3.000004579142914
endloop
endfacet
facet normal -0.8660254005807455 0.5000000055489479 -1.0662841481112604e-07
outer loop
vertex 279.7065518120053 2740.595278005997 3.000004577900394
vertex 279.87638292436964 2741.0052856721645 4.579142937444214e-06
vertex 279.70655220611184 2740.5952780488387 4.577900415092539e-06
endloop
endfacet
facet normal -0.9914448613738589 0.1305261922196219 -1.283809576852784e-07
outer loop
vertex 279.93430901967804 2741.445278048839 4.581955662252834e-06
vertex 279.87638253026313 2741.0052856293223 3.000004579142914
vertex 279.93430862557153 2741.445278005997 3.0000045819556393
endloop
endfacet
facet normal -0.9659258253603272 0.2588190485686006 -1.2319644347678763e-07
outer loop
vertex 279.87638253026313 2741.0052856293223 3.000004579142914
vertex 279.93430901967804 2741.445278048839 4.581955662252834e-06
vertex 279.87638292436964 2741.0052856721645 4.579142937444214e-06
endloop
endfacet
facet normal -0.9999999999999916 1.0687614853282231e-13 -1.3136883794118133e-07
outer loop
vertex 279.93430901968145 2773.4262309864635 4.581955662252834e-06
vertex 279.93430862557153 2741.445278005997 3.0000045819556393
vertex 279.93430862557494 2773.4262309436212 3.0000045819556393
endloop
endfacet
facet normal -0.9999999999999916 1.0687614853282231e-13 -1.3136883794118133e-07
outer loop
vertex 279.93430862557153 2741.445278005997 3.0000045819556393
vertex 279.93430901968145 2773.4262309864635 4.581955662252834e-06
vertex 279.93430901967804 2741.445278048839 4.581955662252834e-06
endloop
endfacet
facet normal -0.9659258269552836 -0.2588190426161383 -1.3058866307910478e-07
outer loop
vertex 279.87638292437276 2773.866223363138 4.586146922036515e-06
vertex 279.93430862557494 2773.4262309436212 3.0000045819556393
vertex 279.87638253026626 2773.866223320296 3.000004586146899
endloop
endfacet
facet normal -0.9914448613737796 -0.1305261922202185 -1.321089609581644e-07
outer loop
vertex 279.93430862557494 2773.4262309436212 3.0000045819556393
vertex 279.87638292437276 2773.866223363138 4.586146922036515e-06
vertex 279.93430901968145 2773.4262309864635 4.581955662252834e-06
endloop
endfacet
facet normal -0.866025406533377 -0.49999999523868477 -1.2090908682753855e-07
outer loop
vertex 279.7065522061152 2774.276230986464 4.591431200828832e-06
vertex 279.87638253026626 2773.866223320296 3.000004586146899
vertex 279.70655181200874 2774.2762309436216 3.0000045914311797
endloop
endfacet
facet normal -0.9659258256229629 -0.25881904758842683 -1.3058866297508696e-07
outer loop
vertex 279.87638253026626 2773.866223320296 3.000004586146899
vertex 279.7065522061152 2774.276230986464 4.591431200828832e-06
vertex 279.87638292437276 2773.866223363138 4.586146922036515e-06
endloop
endfacet
facet normal -0.7071067868764173 -0.7071067754966703 -1.0298975627022457e-07
outer loop
vertex 279.4363905476988 2774.628312514481 4.597448080123634e-06
vertex 279.70655181200874 2774.2762309436216 3.0000045914311797
vertex 279.4363901535923 2774.6283124716388 3.000004597448052
endloop
endfacet
facet normal -0.8660254010358217 -0.5000000047607298 -1.2090908624131234e-07
outer loop
vertex 279.70655181200874 2774.2762309436216 3.0000045914311797
vertex 279.4363905476988 2774.628312514481 4.597448080123634e-06
vertex 279.7065522061152 2774.276230986464 4.591431200828832e-06
endloop
endfacet
facet normal -0.5000000087013607 -0.8660253987607024 -7.805184410175153e-08
outer loop
vertex 279.08430901968177 2774.8984741728973 4.6037876862525804e-06
vertex 279.4363901535923 2774.6283124716388 3.000004597448052
vertex 279.08430862557526 2774.8984741300555 3.000004603787658
endloop
endfacet
facet normal -0.7071067754968027 -0.7071067868762849 -1.0298975493780636e-07
outer loop
vertex 279.4363901535923 2774.6283124716388 3.000004597448052
vertex 279.08430901968177 2774.8984741728973 4.6037876862525804e-06
vertex 279.4363905476988 2774.628312514481 4.597448080123634e-06
endloop
endfacet
facet normal -0.258819056078766 -0.965925823347991 -4.779482774316301e-08
outer loop
vertex 278.674301396356 2775.068304891155 4.610018117379155e-06
vertex 279.08430862557526 2774.8984741300555 3.000004603787658
vertex 278.6743010022495 2775.0683048483133 3.000004610018092
endloop
endfacet
facet normal -0.499999991298899 -0.8660254088080181 -7.805184195909275e-08
outer loop
vertex 279.08430862557526 2774.8984741300555 3.000004603787658
vertex 278.674301396356 2775.068304891155 4.610018117379155e-06
vertex 279.08430901968177 2774.8984741728973 4.6037876862525804e-06
endloop
endfacet
facet normal -1.190497909628338e-08 -1.0 -1.428067278740479e-08
outer loop
vertex 278.23430901968163 2775.126230986464 4.6157145328629134e-06
vertex 278.6743010022495 2775.0683048483133 3.000004610018092
vertex 278.23430862557507 2775.126230943622 3.000004615714507
endloop
endfacet
facet normal -0.25881903412653706 -0.9659258292300731 -4.7794824943324284e-08
outer loop
vertex 278.6743010022495 2775.0683048483133 3.000004610018092
vertex 278.23430901968163 2775.126230986464 4.6157145328629134e-06
vertex 278.674301396356 2775.068304891155 4.610018117379155e-06
endloop
endfacet
facet normal 0.2588190338638074 -0.9659258293004721 2.0206686521452758e-08
outer loop
vertex 277.7943166430074 2775.068304891155 4.62048888557609e-06
vertex 278.23430862557507 2775.126230943622 3.000004615714507
vertex 277.7943162489009 2775.0683048483133 3.0000046204888604
endloop
endfacet
facet normal 1.190482942528882e-08 -1.0 -1.4280669659537912e-08
outer loop
vertex 278.23430862557507 2775.126230943622 3.000004615714507
vertex 277.7943166430074 2775.068304891155 4.62048888557609e-06
vertex 278.23430901968163 2775.126230986464 4.6157145328629134e-06
endloop
endfacet
facet normal 0.4999999908437535 -0.8660254090707984 5.3316993629565306e-08
outer loop
vertex 277.3843090196818 2774.8984741728973 4.62401576407645e-06
vertex 277.7943162489009 2775.0683048483133 3.0000046204888604
vertex 277.3843086255753 2774.8984741300555 3.000004624015741
endloop
endfacet
facet normal 0.25881905634130603 -0.9659258232776448 2.0206689560305648e-08
outer loop
vertex 277.7943162489009 2775.0683048483133 3.0000046204888604
vertex 277.3843090196818 2774.8984741728973 4.62401576407645e-06
vertex 277.7943166430074 2775.068304891155 4.62048888557609e-06
endloop
endfacet
facet normal 0.7071067749712828 -0.7071067874018074 8.279383577572288e-08
outer loop
vertex 277.0322274916645 2774.6283125144814 4.626054760581421e-06
vertex 277.3843086255753 2774.8984741300555 3.000004624015741
vertex 277.032227097558 2774.628312471639 3.0000046260547375
endloop
endfacet
facet normal 0.5000000091560066 -0.8660253984982141 5.3316996186208334e-08
outer loop
vertex 277.3843086255753 2774.8984741300555 3.000004624015741
vertex 277.0322274916645 2774.6283125144814 4.626054760581421e-06
vertex 277.3843090196818 2774.8984741728973 4.62401576407645e-06
endloop
endfacet
facet normal 0.8660254005805587 -0.5000000055492716 1.0662841480906583e-07
outer loop
vertex 276.762065833248 2774.276230986464 4.626467079160701e-06
vertex 277.032227097558 2774.628312471639 3.0000046260547375
vertex 276.76206543914157 2774.276230943622 3.000004626467053
endloop
endfacet
facet normal 0.7071067874014627 -0.7071067749716275 8.279383758617246e-08
outer loop
vertex 277.032227097558 2774.628312471639 3.0000046260547375
vertex 276.762065833248 2774.276230986464 4.626467079160701e-06
vertex 277.0322274916645 2774.6283125144814 4.626054760581421e-06
endloop
endfacet
facet normal 0.9659258272178304 -0.2588190416363044 1.231964438195631e-07
outer loop
vertex 276.59223472088337 2773.8662233202963 3.00000462522453
vertex 276.762065833248 2774.276230986464 4.626467079160701e-06
vertex 276.76206543914157 2774.276230943622 3.000004626467053
endloop
endfacet
facet normal 0.8660254005805587 -0.5000000055492716 1.0662841480906583e-07
outer loop
vertex 276.762065833248 2774.276230986464 4.626467079160701e-06
vertex 276.59223472088337 2773.8662233202963 3.00000462522453
vertex 276.5922351149899 2773.866223363138 4.625224558219009e-06
endloop
endfacet
facet normal -0.9999999999999882 8.016960043449692e-08 -1.3136879320846056e-07
outer loop
vertex 259.242158945377 2779.2660479177775 8.402670554352731e-07
vertex 259.24215541214613 2736.505002172737 0.8000002296087152
vertex 259.242158840282 2779.266047906353 0.8000008402670483
endloop
endfacet
facet normal -0.9999999999999882 8.016960043449692e-08 -1.3136879320846056e-07
outer loop
vertex 259.24215541214613 2736.505002172737 0.8000002296087152
vertex 259.242158945377 2779.2660479177775 8.402670554352731e-07
vertex 259.24215551724103 2736.5050021841616 6.604107014251958e-07
endloop
endfacet
facet normal -1.313687942955926e-07 -1.4280705040380009e-08 0.9999999999999913
outer loop
vertex 274.24215884028183 2779.2660467038086 0.8000028107989449
vertex 259.24215541214613 2736.505002172737 0.8000002296087152
vertex 274.24215541214596 2736.505000970193 0.8000022001406132
endloop
endfacet
facet normal -1.313687942955926e-07 -1.4280705040380009e-08 0.9999999999999913
outer loop
vertex 259.24215541214613 2736.505002172737 0.8000002296087152
vertex 274.24215884028183 2779.2660467038086 0.8000028107989449
vertex 259.242158840282 2779.266047906353 0.8000008402670483
endloop
endfacet
facet normal -9.879283304811272e-08 -1.296002771563904e-08 0.9999999999999951
outer loop
vertex 293.44215512906965 2736.5050009387737 3.0000040565165578
vertex 279.08430862557174 2739.973034819563 3.0000045803517064
vertex 274.24215512313435 2736.5050009387755 3.0000026309425727
endloop
endfacet
facet normal -9.879283304811272e-08 -1.296002771563904e-08 0.9999999999999951
outer loop
vertex 279.08430862557174 2739.973034819563 3.0000045803517064
vertex 293.44215512906965 2736.5050009387737 3.0000040565165578
vertex 279.43639015358883 2740.24319647798 3.0000045783125264
endloop
endfacet
facet normal -9.879283304811272e-08 -1.296002771563904e-08 0.9999999999999951
outer loop
vertex 279.43639015358883 2740.24319647798 3.0000045783125264
vertex 293.44215512906965 2736.5050009387737 3.0000040565165578
vertex 279.7065518120053 2740.595278005997 3.000004577900394
endloop
endfacet
facet normal -9.879283304811272e-08 -1.296002771563904e-08 0.9999999999999951
outer loop
vertex 279.7065518120053 2740.595278005997 3.000004577900394
vertex 293.44215512906965 2736.5050009387737 3.0000040565165578
vertex 279.87638253026313 2741.0052856293223 3.000004579142914
endloop
endfacet
facet normal -9.879283304811272e-08 -1.296002771563904e-08 0.9999999999999951
outer loop
vertex 279.87638253026313 2741.0052856293223 3.000004579142914
vertex 293.44215512906965 2736.5050009387737 3.0000040565165578
vertex 293.44215597978206 2779.2660458389482 3.000005482098345
endloop
endfacet
facet normal -9.879283304811272e-08 -1.296002771563904e-08 0.9999999999999951
outer loop
vertex 274.24215512313435 2736.5050009387755 3.0000026309425727
vertex 279.08430862557174 2739.973034819563 3.0000045803517064
vertex 278.6743010022457 2739.8032041013057 3.000004583878582
endloop
endfacet
facet normal -9.879283304811272e-08 -1.296002771563904e-08 0.9999999999999951
outer loop
vertex 274.24215512313435 2736.5050009387755 3.0000026309425727
vertex 278.6743010022457 2739.8032041013057 3.000004583878582
vertex 278.2343086255714 2739.745278005997 3.0000045886529354
endloop
endfacet
facet normal -9.879283304811272e-08 -1.296002771563904e-08 0.9999999999999951
outer loop
vertex 279.87638253026313 2741.0052856293223 3.000004579142914
vertex 293.44215597978206 2779.2660458389482 3.000005482098345
vertex 279.93430862557153 2741.445278005997 3.0000045819556393
endloop
endfacet
facet normal -9.879283304811272e-08 -1.296002771563904e-08 0.9999999999999951
outer loop
vertex 279.93430862557153 2741.445278005997 3.0000045819556393
vertex 293.44215597978206 2779.2660458389482 3.000005482098345
vertex 279.93430862557494 2773.4262309436212 3.0000045819556393
endloop
endfacet
facet normal -9.879283304811272e-08 -1.296002771563904e-08 0.9999999999999951
outer loop
vertex 279.93430862557494 2773.4262309436212 3.0000045819556393
vertex 293.44215597978206 2779.2660458389482 3.000005482098345
vertex 279.87638253026626 2773.866223320296 3.000004586146899
endloop
endfacet
facet normal -9.879283304811272e-08 -1.296002771563904e-08 0.9999999999999951
outer loop
vertex 279.87638253026626 2773.866223320296 3.000004586146899
vertex 293.44215597978206 2779.2660458389482 3.000005482098345
vertex 279.70655181200874 2774.2762309436216 3.0000045914311797
endloop
endfacet
facet normal -9.879283304811272e-08 -1.296002771563904e-08 0.9999999999999951
outer loop
vertex 279.70655181200874 2774.2762309436216 3.0000045914311797
vertex 293.44215597978206 2779.2660458389482 3.000005482098345
vertex 279.4363901535923 2774.6283124716388 3.000004597448052
endloop
endfacet
facet normal -9.879283304811272e-08 -1.296002771563904e-08 0.9999999999999951
outer loop
vertex 279.4363901535923 2774.6283124716388 3.000004597448052
vertex 293.44215597978206 2779.2660458389482 3.000005482098345
vertex 279.08430862557526 2774.8984741300555 3.000004603787658
endloop
endfacet
facet normal -9.879283304811272e-08 -1.296002771563904e-08 0.9999999999999951
outer loop
vertex 279.08430862557526 2774.8984741300555 3.000004603787658
vertex 293.44215597978206 2779.2660458389482 3.000005482098345
vertex 278.6743010022495 2775.0683048483133 3.000004610018092
endloop
endfacet
facet normal -9.879283304811272e-08 -1.296002771563904e-08 0.9999999999999951
outer loop
vertex 278.6743010022495 2775.0683048483133 3.000004610018092
vertex 293.44215597978206 2779.2660458389482 3.000005482098345
vertex 278.23430862557507 2775.126230943622 3.000004615714507
endloop
endfacet
facet normal -9.879283304811272e-08 -1.296002771563904e-08 0.9999999999999951
outer loop
vertex 274.24215512313435 2736.5050009387755 3.0000026309425727
vertex 276.53430862557155 2741.445278005997 3.0000046224116277
vertex 274.24215848058816 2779.266046534771 3.000002955043282
endloop
endfacet
facet normal -9.879283304811272e-08 -1.296002771563904e-08 0.9999999999999951
outer loop
vertex 276.53430862557155 2741.445278005997 3.0000046224116277
vertex 274.24215512313435 2736.5050009387755 3.0000026309425727
vertex 276.5922347208804 2741.0052856293228 3.0000046182205455
endloop
endfacet
facet normal -9.879283304811272e-08 -1.296002771563904e-08 0.9999999999999951
outer loop
vertex 276.5922347208804 2741.0052856293228 3.0000046182205455
vertex 274.24215512313435 2736.5050009387755 3.0000026309425727
vertex 276.7620654391381 2740.5952780059974 3.0000046129362676
endloop
endfacet
facet normal -9.879283304811272e-08 -1.296002771563904e-08 0.9999999999999951
outer loop
vertex 276.7620654391381 2740.5952780059974 3.0000046129362676
vertex 274.24215512313435 2736.5050009387755 3.0000026309425727
vertex 277.03222709755454 2740.24319647798 3.0000046069193926
endloop
endfacet
facet normal -9.879283304811272e-08 -1.296002771563904e-08 0.9999999999999951
outer loop
vertex 277.03222709755454 2740.24319647798 3.0000046069193926
vertex 274.24215512313435 2736.5050009387755 3.0000026309425727
vertex 277.38430862557175 2739.9730348195635 3.000004600579609
endloop
endfacet
facet normal -9.879283304811272e-08 -1.296002771563904e-08 0.9999999999999951
outer loop
vertex 277.38430862557175 2739.9730348195635 3.000004600579609
vertex 274.24215512313435 2736.5050009387755 3.0000026309425727
vertex 277.79431624889713 2739.8032041013057 3.0000045943493503
endloop
endfacet
facet normal -9.879283304811272e-08 -1.296002771563904e-08 0.9999999999999951
outer loop
vertex 277.79431624889713 2739.8032041013057 3.0000045943493503
vertex 274.24215512313435 2736.5050009387755 3.0000026309425727
vertex 278.2343086255714 2739.745278005997 3.0000045886529354
endloop
endfacet
facet normal -9.879283304811272e-08 -1.296002771563904e-08 0.9999999999999951
outer loop
vertex 274.24215848058816 2779.266046534771 3.000002955043282
vertex 276.53430862557155 2741.445278005997 3.0000046224116277
vertex 276.53430862557497 2773.4262309436217 3.0000046224116277
endloop
endfacet
facet normal -9.879283304811272e-08 -1.296002771563904e-08 0.9999999999999951
outer loop
vertex 274.24215848058816 2779.266046534771 3.000002955043282
vertex 276.53430862557497 2773.4262309436217 3.0000046224116277
vertex 276.59223472088337 2773.8662233202963 3.00000462522453
endloop
endfacet
facet normal -9.879283304811272e-08 -1.296002771563904e-08 0.9999999999999951
outer loop
vertex 274.24215848058816 2779.266046534771 3.000002955043282
vertex 276.59223472088337 2773.8662233202963 3.00000462522453
vertex 276.76206543914157 2774.276230943622 3.000004626467053
endloop
endfacet
facet normal -9.879283304811272e-08 -1.296002771563904e-08 0.9999999999999951
outer loop
vertex 274.24215848058816 2779.266046534771 3.000002955043282
vertex 276.76206543914157 2774.276230943622 3.000004626467053
vertex 277.032227097558 2774.628312471639 3.0000046260547375
endloop
endfacet
facet normal -9.879283304811272e-08 -1.296002771563904e-08 0.9999999999999951
outer loop
vertex 274.24215848058816 2779.266046534771 3.000002955043282
vertex 277.032227097558 2774.628312471639 3.0000046260547375
vertex 277.3843086255753 2774.8984741300555 3.000004624015741
endloop
endfacet
facet normal -9.879283304811272e-08 -1.296002771563904e-08 0.9999999999999951
outer loop
vertex 274.24215848058816 2779.266046534771 3.000002955043282
vertex 277.3843086255753 2774.8984741300555 3.000004624015741
vertex 277.7943162489009 2775.0683048483133 3.0000046204888604
endloop
endfacet
facet normal -9.879283304811272e-08 -1.296002771563904e-08 0.9999999999999951
outer loop
vertex 274.24215848058816 2779.266046534771 3.000002955043282
vertex 277.7943162489009 2775.0683048483133 3.0000046204888604
vertex 278.23430862557507 2775.126230943622 3.000004615714507
endloop
endfacet
facet normal -9.879283304811272e-08 -1.296002771563904e-08 0.9999999999999951
outer loop
vertex 274.24215848058816 2779.266046534771 3.000002955043282
vertex 278.23430862557507 2775.126230943622 3.000004615714507
vertex 293.44215597978206 2779.2660458389482 3.000005482098345
endloop
endfacet
facet normal -0.999999999999986 7.934312317242172e-08 -1.4743297149895775e-07
outer loop
vertex 274.24215884028183 2779.2660467038086 0.8000028107989449
vertex 274.24215512313435 2736.5050009387755 3.0000026309425727
vertex 274.24215848058816 2779.266046534771 3.000002955043282
endloop
endfacet
facet normal -0.999999999999986 7.934312317242172e-08 -1.4743297149895775e-07
outer loop
vertex 274.24215512313435 2736.5050009387755 3.0000026309425727
vertex 274.24215884028183 2779.2660467038086 0.8000028107989449
vertex 274.24215541214596 2736.505000970193 0.8000022001406132
endloop
endfacet
facet normal 1.1687555055055472e-07 1.5153051437024164e-08 -0.9999999999999931
outer loop
vertex 259.24215551724103 2736.5050021841616 6.604107014251958e-07
vertex 277.79431664300364 2739.8032041441475 4.5943493754641015e-06
vertex 278.2343090196779 2739.745278048839 4.588652961390327e-06
endloop
endfacet
facet normal 1.1687555055055472e-07 1.5153051437024164e-08 -0.9999999999999931
outer loop
vertex 277.79431664300364 2739.8032041441475 4.5943493754641015e-06
vertex 259.24215551724103 2736.5050021841616 6.604107014251958e-07
vertex 277.38430901967826 2739.9730348624053 4.600579631752755e-06
endloop
endfacet
facet normal 1.1687555055055472e-07 1.5153051437024164e-08 -0.9999999999999931
outer loop
vertex 277.38430901967826 2739.9730348624053 4.600579631752755e-06
vertex 259.24215551724103 2736.5050021841616 6.604107014251958e-07
vertex 277.03222749166105 2740.243196520822 4.606919415539589e-06
endloop
endfacet
facet normal 1.1687555055055472e-07 1.5153051437024164e-08 -0.9999999999999931
outer loop
vertex 277.03222749166105 2740.243196520822 4.606919415539589e-06
vertex 259.24215551724103 2736.5050021841616 6.604107014251958e-07
vertex 276.76206583324466 2740.595278048839 4.612936293424407e-06
endloop
endfacet
facet normal 1.1687555055055472e-07 1.5153051437024164e-08 -0.9999999999999931
outer loop
vertex 276.76206583324466 2740.595278048839 4.612936293424407e-06
vertex 259.24215551724103 2736.5050021841616 6.604107014251958e-07
vertex 259.242158945377 2779.2660479177775 8.402670554352731e-07
endloop
endfacet
facet normal 1.1687555055055472e-07 1.5153051437024164e-08 -0.9999999999999931
outer loop
vertex 276.76206583324466 2740.595278048839 4.612936293424407e-06
vertex 259.242158945377 2779.2660479177775 8.402670554352731e-07
vertex 276.5922351149869 2741.0052856721645 4.618220573626708e-06
endloop
endfacet
facet normal 1.1687555055055472e-07 1.5153051437024164e-08 -0.9999999999999931
outer loop
vertex 276.5922351149869 2741.0052856721645 4.618220573626708e-06
vertex 259.242158945377 2779.2660479177775 8.402670554352731e-07
vertex 276.53430901967806 2741.445278048839 4.6224116557525e-06
endloop
endfacet
facet normal 1.1687555055055472e-07 1.5153051437024164e-08 -0.9999999999999931
outer loop
vertex 276.53430901967806 2741.445278048839 4.6224116557525e-06
vertex 259.242158945377 2779.2660479177775 8.402670554352731e-07
vertex 276.5343090196815 2773.426230986464 4.6224116557525e-06
endloop
endfacet
facet normal 1.1687555055055472e-07 1.5153051437024164e-08 -0.9999999999999931
outer loop
vertex 276.5343090196815 2773.426230986464 4.6224116557525e-06
vertex 259.242158945377 2779.2660479177775 8.402670554352731e-07
vertex 276.5922351149899 2773.866223363138 4.625224558219009e-06
endloop
endfacet
facet normal 1.1687555055055472e-07 1.5153051437024164e-08 -0.9999999999999931
outer loop
vertex 276.5922351149899 2773.866223363138 4.625224558219009e-06
vertex 259.242158945377 2779.2660479177775 8.402670554352731e-07
vertex 276.762065833248 2774.276230986464 4.626467079160701e-06
endloop
endfacet
facet normal 1.1687555055055472e-07 1.5153051437024164e-08 -0.9999999999999931
outer loop
vertex 276.762065833248 2774.276230986464 4.626467079160701e-06
vertex 259.242158945377 2779.2660479177775 8.402670554352731e-07
vertex 277.0322274916645 2774.6283125144814 4.626054760581421e-06
endloop
endfacet
facet normal 1.1687555055055472e-07 1.5153051437024164e-08 -0.9999999999999931
outer loop
vertex 277.0322274916645 2774.6283125144814 4.626054760581421e-06
vertex 259.242158945377 2779.2660479177775 8.402670554352731e-07
vertex 277.3843090196818 2774.8984741728973 4.62401576407645e-06
endloop
endfacet
facet normal 1.1687555055055472e-07 1.5153051437024164e-08 -0.9999999999999931
outer loop
vertex 277.3843090196818 2774.8984741728973 4.62401576407645e-06
vertex 259.242158945377 2779.2660479177775 8.402670554352731e-07
vertex 277.7943166430074 2775.068304891155 4.62048888557609e-06
endloop
endfacet
facet normal 1.1687555055055472e-07 1.5153051437024164e-08 -0.9999999999999931
outer loop
vertex 277.7943166430074 2775.068304891155 4.62048888557609e-06
vertex 259.242158945377 2779.2660479177775 8.402670554352731e-07
vertex 278.23430901968163 2775.126230986464 4.6157145328629134e-06
endloop
endfacet
facet normal 1.1687555055055472e-07 1.5153051437024164e-08 -0.9999999999999931
outer loop
vertex 278.23430901968163 2775.126230986464 4.6157145328629134e-06
vertex 259.242158945377 2779.2660479177775 8.402670554352731e-07
vertex 293.44215637388857 2779.2660458817904 5.482098369480326e-06
endloop
endfacet
facet normal 1.1687555055055472e-07 1.5153051437024164e-08 -0.9999999999999931
outer loop
vertex 293.44215552317615 2736.5050009816155 4.05651658230699e-06
vertex 279.87638292436964 2741.0052856721645 4.579142937444214e-06
vertex 293.44215637388857 2779.2660458817904 5.482098369480326e-06
endloop
endfacet
facet normal 1.1687555055055472e-07 1.5153051437024164e-08 -0.9999999999999931
outer loop
vertex 279.87638292436964 2741.0052856721645 4.579142937444214e-06
vertex 293.44215552317615 2736.5050009816155 4.05651658230699e-06
vertex 279.70655220611184 2740.5952780488387 4.577900415092539e-06
endloop
endfacet
facet normal 1.1687555055055472e-07 1.5153051437024164e-08 -0.9999999999999931
outer loop
vertex 279.70655220611184 2740.5952780488387 4.577900415092539e-06
vertex 293.44215552317615 2736.5050009816155 4.05651658230699e-06
vertex 279.43639054769534 2740.2431965208216 4.578312554603947e-06
endloop
endfacet
facet normal 1.1687555055055472e-07 1.5153051437024164e-08 -0.9999999999999931
outer loop
vertex 279.43639054769534 2740.2431965208216 4.578312554603947e-06
vertex 293.44215552317615 2736.5050009816155 4.05651658230699e-06
vertex 279.08430901967824 2739.9730348624053 4.58035173440674e-06
endloop
endfacet
facet normal 1.1687555055055472e-07 1.5153051437024164e-08 -0.9999999999999931
outer loop
vertex 279.08430901967824 2739.9730348624053 4.58035173440674e-06
vertex 293.44215552317615 2736.5050009816155 4.05651658230699e-06
vertex 278.67430139635223 2739.8032041441475 4.583878607267166e-06
endloop
endfacet
facet normal 1.1687555055055472e-07 1.5153051437024164e-08 -0.9999999999999931
outer loop
vertex 278.67430139635223 2739.8032041441475 4.583878607267166e-06
vertex 293.44215552317615 2736.5050009816155 4.05651658230699e-06
vertex 259.24215551724103 2736.5050021841616 6.604107014251958e-07
endloop
endfacet
facet normal 1.1687555055055472e-07 1.5153051437024164e-08 -0.9999999999999931
outer loop
vertex 278.67430139635223 2739.8032041441475 4.583878607267166e-06
vertex 259.24215551724103 2736.5050021841616 6.604107014251958e-07
vertex 278.2343090196779 2739.745278048839 4.588652961390327e-06
endloop
endfacet
facet normal 1.1687555055055472e-07 1.5153051437024164e-08 -0.9999999999999931
outer loop
vertex 293.44215637388857 2779.2660458817904 5.482098369480326e-06
vertex 279.87638292436964 2741.0052856721645 4.579142937444214e-06
vertex 279.93430901967804 2741.445278048839 4.581955662252834e-06
endloop
endfacet
facet normal 1.1687555055055472e-07 1.5153051437024164e-08 -0.9999999999999931
outer loop
vertex 293.44215637388857 2779.2660458817904 5.482098369480326e-06
vertex 279.93430901967804 2741.445278048839 4.581955662252834e-06
vertex 279.93430901968145 2773.4262309864635 4.581955662252834e-06
endloop
endfacet
facet normal 1.1687555055055472e-07 1.5153051437024164e-08 -0.9999999999999931
outer loop
vertex 293.44215637388857 2779.2660458817904 5.482098369480326e-06
vertex 279.93430901968145 2773.4262309864635 4.581955662252834e-06
vertex 279.87638292437276 2773.866223363138 4.586146922036515e-06
endloop
endfacet
facet normal 1.1687555055055472e-07 1.5153051437024164e-08 -0.9999999999999931
outer loop
vertex 293.44215637388857 2779.2660458817904 5.482098369480326e-06
vertex 279.87638292437276 2773.866223363138 4.586146922036515e-06
vertex 279.7065522061152 2774.276230986464 4.591431200828832e-06
endloop
endfacet
facet normal 1.1687555055055472e-07 1.5153051437024164e-08 -0.9999999999999931
outer loop
vertex 293.44215637388857 2779.2660458817904 5.482098369480326e-06
vertex 279.7065522061152 2774.276230986464 4.591431200828832e-06
vertex 279.4363905476988 2774.628312514481 4.597448080123634e-06
endloop
endfacet
facet normal 1.1687555055055472e-07 1.5153051437024164e-08 -0.9999999999999931
outer loop
vertex 293.44215637388857 2779.2660458817904 5.482098369480326e-06
vertex 279.4363905476988 2774.628312514481 4.597448080123634e-06
vertex 279.08430901968177 2774.8984741728973 4.6037876862525804e-06
endloop
endfacet
facet normal 1.1687555055055472e-07 1.5153051437024164e-08 -0.9999999999999931
outer loop
vertex 293.44215637388857 2779.2660458817904 5.482098369480326e-06
vertex 279.08430901968177 2774.8984741728973 4.6037876862525804e-06
vertex 278.674301396356 2775.068304891155 4.610018117379155e-06
endloop
endfacet
facet normal 1.1687555055055472e-07 1.5153051437024164e-08 -0.9999999999999931
outer loop
vertex 293.44215637388857 2779.2660458817904 5.482098369480326e-06
vertex 278.674301396356 2775.068304891155 4.610018117379155e-06
vertex 278.23430901968163 2775.126230986464 4.6157145328629134e-06
endloop
endfacet
endsolid Prusai3 X3D full stuff V1
